<svg xmlns="http://www.w3.org/2000/svg" xml:space="preserve" width="133.245mm" height="59.8841mm" version="1.1" style="shape-rendering:geometricPrecision; text-rendering:geometricPrecision; image-rendering:optimizeQuality; fill-rule:evenodd; clip-rule:evenodd"
viewBox="0 0 14566.86 6546.78"
 xmlns:xlink="http://www.w3.org/1999/xlink"
 xmlns:xodm="http://www.corel.com/coreldraw/odm/2003">
 <defs>
  <style type="text/css">
   <![CDATA[
    .fil0 {fill:#2B2A29;fill-rule:nonzero}
   ]]>
  </style>
 </defs>
 <g id="Слой_x0020_1">
  <metadata id="CorelCorpID_0Corel-Layer"/>
  <path class="fil0" d="M5853.84 6368.97l-848.56 0c-116.42,0 -206.48,-7.61 -270.16,-22.85 -63.69,-15.25 -119.96,-42.42 -168.87,-81.64 -129.49,-105.52 -194.19,-258.9 -194.19,-460.15 0,-166.47 34.24,-329.61 102.79,-489.6 53.32,-122.9 101.21,-217.62 143.59,-283.88l460.17 0c158.87,0 288.59,-13.09 389.35,-39.26 100.62,-26.01 188.4,-69.01 263.55,-128.93 134.86,-107.67 202.28,-232.18 202.28,-373.6 0,-85.96 -28.31,-162.14 -84.81,-228.54 -71.86,-83.71 -177.39,-125.64 -316.55,-125.64 -337.36,0 -676.21,234.45 -1016.75,703.33l-383.52 0 -78.33 192.64 332.9 0c-83.78,164.27 -142.21,303.44 -175.42,417.73 -33.22,114.25 -49.82,232.28 -49.82,354.18 0,140.3 25.81,265.93 77.55,376.88 51.62,110.97 125.39,198.54 221.16,262.77 58.65,39.11 122.12,66.31 190.09,81.64 68,15.12 162.97,22.72 284.72,22.72l855.14 0 63.69 -177.8zm-1091.79 -1530.76c301.33,-348.15 553.73,-522.23 757.28,-522.23 59.8,0 108.71,17.77 146.76,53.12 38.1,35.36 57.22,80.74 57.22,136.21 0,96.88 -53.35,176.59 -160,239.11 -106.65,62.52 -242.05,93.79 -406.38,93.79l-394.88 0zm2265.17 491.18l-189.28 0 -269.25 692c-75.16,56.5 -128.47,92.99 -160,109.37 -31.58,16.27 -65.81,24.46 -102.79,24.46 -124.06,0 -186,-44.12 -186,-132.24 0,-31.49 16.26,-90.28 48.9,-176.23l194.19 -517.35 -194.19 0 -177.85 465.17c-45.7,121.86 -68.56,208.85 -68.56,261.03 0,92.56 34.23,164.29 102.78,215.49 28.34,20.68 59.83,34.78 94.73,42.37 34.78,7.64 85.84,11.38 153.39,11.38 73.9,0 133.23,-11.93 177.8,-35.8 17.42,-9.76 45.72,-27.76 84.86,-53.89 19.65,-13.1 38.09,-25.01 55.46,-35.95 24.01,44.67 57.21,75.61 99.63,93.01 42.42,17.5 106.06,26.14 190.9,26.14l212.17 0 65.27 -168.04 -243.12 0c-107.78,0 -161.57,-26.72 -161.57,-80.06 0,-25.01 11.96,-66.27 35.93,-123.93l236.6 -616.94zm2214.5 837.2l-252.86 0c-57.76,0 -98.25,-6.52 -121.68,-19.57 -23.3,-13.09 -35.04,-35.93 -35.04,-68.58 0,-22.85 12.52,-64.69 37.56,-125.64l75.02 -181.1c29.46,-71.88 44.13,-129.99 44.13,-174.66 0,-76.06 -27.3,-139.75 -81.65,-190.9 -54.47,-51.17 -121.9,-76.77 -202.4,-76.77 -66.25,0 -124.84,10.92 -175.42,32.64 -50.62,21.82 -119.96,66.4 -208.1,133.82 -75.02,-113.13 -170.2,-169.63 -285.5,-169.63 -103.36,0 -206.27,51.6 -308.47,154.96l53.9 -137.1 -174.68 0 -406.36 987.37 189.32 0 166.48 -399.89c58.77,-140.32 125.42,-248.23 199.86,-323.94 74.48,-75.61 152.62,-113.35 234.27,-113.35 46.73,0 83.65,11.69 110.95,35.11 27.18,23.31 40.82,54.57 40.82,93.8 0,22.85 -2.27,41.61 -6.59,56.31 -4.31,14.66 -19.56,52.95 -45.73,115.05l-220.23 536.89 189.33 0 190.9 -447.2c47.87,-109.84 97.34,-192.48 148.49,-247.97 84.82,-90.28 171.37,-135.53 259.48,-135.53 38.09,0 70.93,10.93 98.7,32.61 27.76,21.85 41.62,47.99 41.62,78.36 0,32.61 -8.65,70.7 -26.06,114.24l-86.5 213.78c-36.97,88.12 -55.5,150.19 -55.5,185.99 0,66.4 23.43,117.35 70.16,152.58 46.82,35.36 114.25,53.12 202.38,53.12l269.24 0 70.15 -164.86zm1139.19 -837.2l-189.28 0 -269.39 692c-75.04,56.5 -128.38,92.99 -159.88,109.37 -31.61,16.27 -65.82,24.46 -102.79,24.46 -124.05,0 -186.12,-44.12 -186.12,-132.24 0,-31.49 16.37,-90.28 49.02,-176.23l194.18 -517.35 -194.18 0 -177.84 465.17c-45.73,121.86 -68.57,208.85 -68.57,261.03 0,92.56 34.22,164.29 102.79,215.49 28.3,20.68 59.81,34.78 94.6,42.37 34.91,7.64 85.95,11.38 153.5,11.38 73.91,0 133.27,-11.93 177.84,-35.8 17.39,-9.76 45.69,-27.76 84.81,-53.89 19.67,-13.1 38.1,-25.01 55.47,-35.95 24.03,44.67 57.21,75.61 99.63,93.01 42.4,17.5 106.08,26.14 190.91,26.14l212.18 0 65.26 -168.04 -243.12 0c-107.77,0 -161.57,-26.72 -161.57,-80.06 0,-25.01 11.95,-66.27 35.81,-123.93l236.73 -616.94z"/>
  <path class="fil0" d="M1675.87 1564l-593.95 914.59 -593.93 -914.59 -488 0 0 1951.87 515.88 0 0 -1040.07 418.25 644.11 295.58 0 418.29 -641.32 0 1037.28 515.85 0 0 -1951.87 -487.97 0zm758.46 975.94c0,543.73 348.56,1017.76 1045.67,1017.76 697.13,0 1045.69,-474.03 1045.69,-1017.76 0,-543.72 -348.56,-1017.75 -1045.69,-1017.75 -697.12,0 -1045.67,474.03 -1045.67,1017.75zm1561.53 0c0,312.31 -178.45,543.73 -515.86,543.73 -337.42,0 -515.88,-231.43 -515.88,-543.73 0,-312.3 178.46,-543.72 515.88,-543.72 337.41,0 515.86,231.43 515.86,543.72zm2041.08 -975.94l0 747.29 -725 0 0 -747.29 -515.85 0 0 1951.87 515.85 0 0 -744.49 725 0 0 744.49 515.89 0 0 -1951.87 -515.89 0zm2640.67 1951.87l0 -1951.87 -487.97 0 -764.02 1120.93c8.35,-92.02 11.14,-214.7 11.14,-323.46l0 -797.48 -515.88 0 0 1951.87 488 0 764.02 -1118.13c-8.35,92.01 -11.15,214.69 -11.15,320.65l0 797.49 515.86 0zm220.3 -1951.87l0 460.09 552.12 0 0 1491.78 515.87 0 0 -1491.78 549.32 0 0 -460.09 -1617.31 0zm1684.23 975.94c0,543.73 348.56,1017.76 1045.67,1017.76 697.13,0 1045.69,-474.03 1045.69,-1017.76 0,-543.72 -348.56,-1017.75 -1045.69,-1017.75 -697.12,0 -1045.67,474.03 -1045.67,1017.75zm1561.55 0c0,312.31 -178.48,543.73 -515.88,543.73 -337.39,0 -515.86,-231.43 -515.86,-543.73 0,-312.3 178.47,-543.72 515.86,-543.72 337.4,0 515.88,231.43 515.88,543.72zm800.27 -975.94l0 1951.87 515.88 0 0 -613.44 256.53 0c482.4,-2.79 850.49,-156.15 850.49,-669.22 0,-513.05 -368.08,-669.22 -850.49,-669.22l-772.41 0zm1093.08 669.22c0,175.66 -139.42,223.06 -295.58,223.06l-281.62 0 0 -446.14 281.62 0c156.16,0 295.58,47.4 295.58,223.08z"/>
  <path class="fil0" d="M2134.56 588.09l0 -246.23 112.37 0 210.38 246.23 112.31 0 -243.85 -288.05 217.57 -285.66 -111.14 0 -181.71 239.03 -115.94 0 0 -239.03 -95.64 0 0 573.71 95.64 0zm1208.45 0l351.4 -419.6 0 419.6 95.67 0 0 -573.71 -81.3 0 -351.4 419.5 0 -419.5 -95.65 0 0 573.71 81.28 0zm1317.28 0l0 -242.68 332.31 0 0 242.68 95.64 0 0 -573.71 -95.64 0 0 242.58 -332.31 0 0 -242.58 -95.66 0 0 573.71 95.66 0zm1163.06 -286.87c0,196.03 150.57,301.21 305.97,301.21 156.65,0 306.03,-105.18 306.03,-301.21 0,-196.02 -149.38,-301.22 -306.03,-301.22 -155.39,0 -305.97,105.2 -305.97,301.22zm516.34 0c0,132.65 -93.19,210.39 -210.37,210.39 -117.12,0 -210.34,-77.74 -210.34,-210.39 0,-132.73 93.22,-210.38 210.34,-210.38 117.18,0 210.37,77.65 210.37,210.38zm1050.7 286.87l0 -485.33 210.39 0 0 -88.38 -517.54 0 0 88.38 211.59 0 0 485.33 95.56 0zm858.29 -286.87c0,204.38 148.2,301.21 317.94,301.21 75.3,0 150.58,-14.34 203.23,-41.82l0 -93.29c-49.01,27.55 -118.37,46.66 -188.86,46.66 -115.99,0 -224.74,-50.19 -236.68,-170.95l456.61 0c35.83,-162.54 -45.45,-343.04 -266.58,-343.04 -136.29,0 -285.67,100.38 -285.67,301.22zm467.34 -41.83l-371.7 0c7.11,-112.37 98.01,-170.93 196.02,-170.93 145.78,0 184.06,109.93 175.68,170.93zm1288.56 209.13l0 -224.67c0,-160.18 -96.83,-243.85 -249.78,-243.85 -94.46,0 -173.38,22.73 -218.75,38.2l0 93.29c50.19,-21.54 120.75,-43.02 209.13,-43.02 105.19,0 163.76,57.36 163.76,143.4l0 20.36c-47.75,-10.81 -108.77,-17.92 -158.96,-17.92 -123.1,0 -259.37,45.38 -259.37,193.58 0,120.74 100.38,174.55 202.01,174.55 93.22,0 166.13,-28.71 223.49,-76.53 16.74,50.25 58.64,69.36 105.19,69.36 23.93,0 49.02,-4.8 71.76,-13.18l0 -77.65c-14.38,4.73 -29.92,8.37 -44.21,8.37 -25.1,0 -44.27,-9.57 -44.27,-44.28zm-415.97 -45.37c0,-83.72 90.82,-108.82 174.55,-108.82 46.58,0 105.14,8.35 145.77,16.74l0 105.18c-50.19,53.82 -123.1,83.72 -196.02,83.72 -63.32,0 -124.3,-29.9 -124.3,-96.82zm1417.64 164.94l0 -485.33 210.38 0 0 -88.38 -517.58 0 0 88.38 211.56 0 0 485.33 95.64 0zm1002.87 -478.14l0 -95.57 -86.02 0 0 836.64 95.57 0 0 -349.03c41.9,49.01 112.36,100.45 222.38,100.45 163.77,0 286.88,-129.09 286.88,-301.21 0,-172.1 -123.11,-301.22 -286.88,-301.22 -110.01,0 -180.47,51.38 -231.93,109.95zm423.16 191.27c0,131.47 -90.84,212.77 -202.03,212.77 -102.76,0 -179.29,-66.93 -211.58,-141.04l0 -143.44c32.28,-74.11 108.81,-141.04 211.58,-141.04 111.19,0 202.03,81.27 202.03,212.76z"/>
 </g>
</svg>
